<svg width="100" height="100" viewBox="0 0 100 100" fill="none" xmlns="http://www.w3.org/2000/svg">
<g clip-path="url(#clip0_4_14)">
<rect width="100" height="100" rx="50" fill="#FBCE57"/>
<path d="M22.8097 55.48C22.8097 59.3733 23.663 62.5733 25.3697 65.08C27.0764 67.5333 29.8764 68.76 33.7697 68.76C35.3697 68.76 37.023 68.5467 38.7297 68.12C40.4897 67.6933 42.6497 66.9733 45.2097 65.96L48.1697 74.28C45.2897 75.56 42.623 76.4667 40.1697 77C37.7697 77.5333 35.4497 77.8 33.2097 77.8C28.7297 77.8 24.9697 76.84 21.9297 74.92C18.943 73 16.703 70.36 15.2097 67C13.7164 63.64 12.9697 59.8 12.9697 55.48V44.04C12.9697 39.72 13.7164 35.88 15.2097 32.52C16.703 29.16 18.943 26.5467 21.9297 24.68C24.9697 22.76 28.7297 21.8 33.2097 21.8C35.3964 21.8 37.663 22.0667 40.0097 22.6C42.3564 23.08 44.9164 23.9333 47.6897 25.16L44.7297 33.64C42.2764 32.6267 40.223 31.9067 38.5697 31.48C36.9164 31.0533 35.3164 30.84 33.7697 30.84C29.8764 30.84 27.0764 32.0667 25.3697 34.52C23.663 36.9733 22.8097 40.1467 22.8097 44.04V55.48ZM70.0241 68.92C76.2107 68.92 79.3041 66.6267 79.3041 62.04C79.3041 60.1733 78.8241 58.7067 77.8641 57.64C76.9574 56.5733 75.2507 55.64 72.7441 54.84L66.1841 52.68C58.3441 50.12 54.4241 44.9733 54.4241 37.24C54.4241 32.76 55.8107 29.08 58.5841 26.2C61.4107 23.2667 65.8107 21.8 71.7841 21.8C74.2907 21.8 76.7707 22.0933 79.2241 22.68C81.6774 23.2133 84.2907 24.0933 87.0641 25.32L84.1041 33.56C81.5441 32.5467 79.3574 31.8267 77.5441 31.4C75.7841 30.92 73.9707 30.68 72.1041 30.68C69.6507 30.68 67.7041 31.1333 66.2641 32.04C64.8774 32.8933 64.1841 34.4667 64.1841 36.76C64.1841 38.4667 64.6641 39.88 65.6241 41C66.6374 42.0667 68.2907 42.9733 70.5841 43.72L77.1441 45.88C81.0907 47.2133 84.0507 49.16 86.0241 51.72C88.0507 54.2267 89.0641 57.56 89.0641 61.72C89.0641 66.52 87.5441 70.4133 84.5041 73.4C81.4641 76.3333 76.6907 77.8 70.1841 77.8C67.6241 77.8 64.9574 77.5067 62.1841 76.92C59.4641 76.28 56.4774 75.2133 53.2241 73.72L56.1841 65.48C59.1707 66.76 61.7041 67.6667 63.7841 68.2C65.9174 68.68 67.9974 68.92 70.0241 68.92Z" fill="#292929"/>
</g>
<defs>
<clipPath id="clip0_4_14">
<rect width="100" height="100" rx="50" fill="white"/>
</clipPath>
</defs>
</svg>
